<?xml version="1.0" encoding="UTF-8"?>
<svg width="51px" height="51px" viewBox="0 0 51 51" version="1.1"
    xmlns="http://www.w3.org/2000/svg"
    xmlns:xlink="http://www.w3.org/1999/xlink">
    <g id="Artboard" stroke="none" stroke-width="1" fill="none" fill-rule="evenodd">
        <g id="noun_Scale_2954648" fill="#0A3E62">
            <path d="M10.1798484,0 C9.77351341,0 9.45967742,0.312164 9.45967742,0.716821038 L9.45967742,27.9692338 L0.71686747,27.9692338 C0.312184221,27.9692338 0,28.2813978 0,28.6893581 L0,50.283179 C0,50.6894877 0.308880684,51 0.71686747,51 L22.3120871,51 C22.7184221,51 23.0289545,50.6911393 23.0289545,50.283179 L23.0289545,41.537632 L50.2831325,41.537632 C50.6894675,41.537632 51,41.2287713 51,40.8208109 L51,0.716821038 C51,0.310512339 50.6911193,0 50.2831325,0 L10.1798484,0 Z M10.8950641,1.43199041 L49.5662651,1.43199041 L49.5662651,40.1006866 L23.0289545,40.1006866 L23.0289545,28.6844031 C23.0289545,28.2780944 22.7200738,27.9675821 22.3120871,27.9675821 L10.8950641,27.9675821 L10.8950641,2.2578211 L10.8950641,1.43199041 Z M35.8780606,7.5051493 C35.4733774,7.5051493 35.1611932,7.8173133 35.1611932,8.22527366 C35.1611932,8.63323402 35.4700738,8.9420947 35.8780606,8.9420947 L40.995239,8.9420947 L26.6132919,23.319807 C26.3258842,23.6071961 26.3258842,24.0448863 26.6132919,24.3322754 C26.755344,24.4743183 26.9353867,24.5403847 27.1137777,24.5420364 L27.1203848,24.5420364 C27.3070346,24.5420364 27.482122,24.4743183 27.6241741,24.3322754 L27.6274777,24.3322754 L41.9350952,10.0255846 L41.9350952,14.9871753 C41.9350952,15.393484 42.2439759,15.7039964 42.6519627,15.7039964 C43.0599495,15.7039964 43.3688302,15.3951357 43.3688302,14.9871753 L43.3688302,8.22527366 C43.3688302,7.81896496 43.0566459,7.5051493 42.6519627,7.5051493 L35.8780606,7.5051493 Z M10.8917606,29.3995725 L21.5952196,29.3995725 L21.5952196,40.1006866 L10.8917606,40.1006866 L10.8917606,30.2254032 L10.8917606,29.3995725 Z" id="Shape"></path>
        </g>
    </g>
</svg>